<?xml version="1.0" encoding="UTF-8"?>
<svg id="Capa_1" data-name="Capa 1" xmlns="http://www.w3.org/2000/svg" viewBox="0 0 325.34 267.24">
  <defs>
    <style>
      .cls-1 {
        fill: #342c7d;
      }

      .cls-1, .cls-2, .cls-3 {
        stroke-width: 0px;
      }

      .cls-2 {
        fill: #c51657;
      }

      .cls-3 {
        fill: #00a1c8;
      }

      .cls-4 {
        fill: #fff;
        stroke: #fff;
        stroke-miterlimit: 10;
        stroke-width: 5px;
      }
    </style>
  </defs>
  <rect class="cls-2" x="-3.65" y="-10.52" width="346" height="289"/>
  <path class="cls-4" d="M309,174.15l-29.91-47.06c-.9-1.42-2.28-2.4-3.86-2.8v-.31H126.98v.21c-1.9.24-3.6,1.25-4.64,2.89l-29.91,47.06h-12.94v5.79c0,26.64,21.67,48.31,48.31,48.31s48.31-21.67,48.31-48.31v-5.79h-12.94l-24.53-38.6h56.33v131.62h11.57v-131.62h56.27l-24.53,38.6h-12.94v5.79c0,26.64,21.67,48.31,48.31,48.31s48.31-21.67,48.31-48.31v-5.79h-12.94ZM127.79,216.67c-18.29,0-33.5-13.43-36.28-30.95h72.56c-2.78,17.52-17.99,30.95-36.28,30.95ZM106.13,174.15l21.66-34.07,21.66,34.07h-43.32ZM273.63,140.08l21.66,34.07h-43.32l21.66-34.07ZM273.63,216.67c-18.29,0-33.5-13.43-36.28-30.95h72.56c-2.78,17.52-17.99,30.95-36.28,30.95Z"/>
  <polygon class="cls-3" points="37.43 227.79 32.99 232.08 44.87 244.38 32.58 256.27 36.87 260.71 53.61 244.53 37.43 227.79"/>
  <polygon class="cls-1" points="16 227.42 11.56 231.72 23.45 244.02 11.15 255.9 15.44 260.35 32.19 244.17 16 227.42"/>
</svg>