<?xml version="1.0" encoding="UTF-8"?>
<svg xmlns="http://www.w3.org/2000/svg" xmlns:xlink="http://www.w3.org/1999/xlink" viewBox="0 0 325.34 267.24">
  <defs>
    <style>
      .cls-1 {
        fill: url(#linear-gradient-2);
        mix-blend-mode: multiply;
        opacity: .42;
      }

      .cls-1, .cls-2, .cls-3, .cls-4, .cls-5 {
        stroke-width: 0px;
      }

      .cls-2 {
        fill: url(#linear-gradient);
      }

      .cls-3 {
        fill: #c51657;
      }

      .cls-6 {
        isolation: isolate;
      }

      .cls-4 {
        fill: #00a1c8;
      }

      .cls-5 {
        fill: #fff;
      }
    </style>
    <linearGradient id="linear-gradient" x1="217.76" y1="50.15" x2="258.8" y2="91.2" gradientUnits="userSpaceOnUse">
      <stop offset="0" stop-color="#007ee5"/>
      <stop offset="1" stop-color="#3043b2"/>
    </linearGradient>
    <linearGradient id="linear-gradient-2" x1="232.39" y1="186.6" x2="277.66" y2="231.87" xlink:href="#linear-gradient"/>
  </defs>
  <g class="cls-6">
    <g id="Capa_1" data-name="Capa 1">
      <path class="cls-4" d="M192.78,173.07c-16.79,0-30.4,13.61-30.4,30.4h16.19c0-7.85,6.36-14.21,14.21-14.21s14.21,6.36,14.21,14.21h16.19c0-16.79-13.61-30.4-30.4-30.4Z"/>
      <polygon class="cls-4" points="177.95 28.32 180.98 25.29 172.6 16.91 180.98 8.54 177.95 5.51 166.55 16.91 177.95 28.32"/>
      <polygon class="cls-3" points="192.8 28.32 195.83 25.29 187.45 16.91 195.83 8.54 192.8 5.51 181.39 16.91 192.8 28.32"/>
      <g>
        <polygon class="cls-3" points="44.09 221.3 39.55 225.84 52.11 238.4 39.55 250.96 44.09 255.5 61.19 238.4 44.09 221.3"/>
        <polygon class="cls-5" points="21.83 221.3 17.29 225.84 29.85 238.4 17.29 250.96 21.83 255.5 38.93 238.4 21.83 221.3"/>
      </g>
      <path class="cls-3" d="M215.71,67.69c-1.93-.6-3.56,3.77-3.56,3.77l-3.83,8.03c-.18.36-.6.52-.97.38-.36-.13-.56-.51-.49-.88l3.45-18.3s1.81-4.54-.81-5.5c-2.62-.96-3.62,2.88-3.62,2.88l-5.8,19.2c-.06.19-.26.31-.46.27-.2-.04-.33-.22-.32-.42l1.3-21.78s.65-5-2.03-5.16c-2.73-.16-3.38,4.69-3.38,4.69l-2.69,20.94c-.08.49-.5.86-1,.89-.51.03-.97-.31-1.1-.81l-2.85-18.25s-.22-2.91-2.73-3.21c-2.51-.3-2.4,3.32-2.4,3.32,0,0,.95,22.17.95,24.61s-1.7,8.63-2.55,8.16c-.85-.48-3.5-4.54-7.27-8.71-3.6-3.98-7.33-1.03-6.69.01.03.05.07.09.12.13.31.25,1.18,1.71,2.3,3.75,2.92,5.29,7.56,14.44,8.62,16.14.79,1.26,2.74,3.18,4.38,4.69.38.35.77.68,1.18,1,1.51,1.18,2.41,2.97,2.41,4.88v27.88h17.59v-28.24c0-1.69.68-3.3,1.92-4.45,1.95-1.82,3.45-4.17,4.26-6.85,1.98-6.56,2.63-13.93,2.63-13.93l3.51-13.85s1.89-4.64-.08-5.26Z"/>
      <path class="cls-3" d="M290.69,68.81c-1.93-.6-3.56,3.77-3.56,3.77l-3.83,8.03c-.18.36-.6.52-.97.38-.36-.13-.56-.51-.49-.88l3.45-18.3s1.81-4.54-.81-5.5c-2.62-.96-3.62,2.88-3.62,2.88l-5.8,19.2c-.06.19-.26.31-.46.27-.2-.04-.33-.22-.32-.42l1.3-21.78s.65-5-2.03-5.16c-2.73-.16-3.38,4.69-3.38,4.69l-2.69,20.94c-.08.49-.5.86-1,.89-.51.03-.97-.31-1.1-.81l-2.85-18.25s-.22-2.91-2.73-3.21c-2.51-.3-2.4,3.32-2.4,3.32,0,0,.95,22.17.95,24.61s-1.7,8.63-2.55,8.16c-.85-.48-3.5-4.54-7.27-8.71-3.6-3.98-7.33-1.03-6.69.01.03.05.07.09.12.13.31.25,1.18,1.71,2.3,3.75,2.92,5.29,7.56,14.44,8.62,16.14.79,1.26,2.74,3.18,4.38,4.69.38.35.77.68,1.18,1,1.51,1.18,2.41,2.97,2.41,4.88v27.88h17.59v-28.24c0-1.69.68-3.3,1.92-4.45,1.95-1.82,3.45-4.17,4.26-6.85,1.98-6.56,2.63-13.93,2.63-13.93l3.51-13.85s1.89-4.64-.08-5.26Z"/>
      <path class="cls-2" d="M260,29.78c-2.53-.78-4.65,4.93-4.65,4.93l-5.01,10.49c-.23.47-.78.68-1.27.5-.47-.17-.74-.66-.64-1.15l4.51-23.9s2.36-5.93-1.06-7.18c-3.42-1.25-4.72,3.76-4.72,3.76l-7.58,25.09c-.08.25-.33.41-.6.36-.26-.05-.44-.29-.41-.55l1.69-28.46s.85-6.54-2.66-6.74c-3.56-.21-4.41,6.12-4.41,6.12l-3.52,27.35c-.11.65-.65,1.13-1.3,1.16-.67.04-1.27-.41-1.43-1.05l-3.72-23.85s-.29-3.81-3.57-4.19c-3.28-.39-3.13,4.34-3.13,4.34,0,0,1.24,28.97,1.24,32.15s-2.22,11.28-3.33,10.66c-1.11-.63-4.58-5.93-9.5-11.38-4.7-5.2-9.57-1.35-8.74.02.04.06.09.12.16.17.4.32,1.54,2.24,3,4.9,3.81,6.91,9.88,18.86,11.27,21.09,1.03,1.65,3.58,4.15,5.72,6.13.5.46,1.01.89,1.54,1.3,1.97,1.54,3.15,3.87,3.15,6.38v36.42h22.98v-36.9c0-2.2.89-4.32,2.5-5.82,2.55-2.38,4.51-5.45,5.57-8.95,2.59-8.57,3.44-18.19,3.44-18.19l4.58-18.1s2.46-6.07-.1-6.87Z"/>
      <path class="cls-4" d="M307.13,189.16c0,19.73-7.88,37.65-20.68,50.72-6.97,7.14-15.41,12.85-24.84,16.64-8.35,3.36-17.5,5.22-27.06,5.22-39.34,0-71.38-31.31-72.54-70.37-.03-.73-.04-1.47-.04-2.21,0-3.37.23-6.69.68-9.95,3.95-28.78,24.78-52.19,52.19-59.91,4.11-1.16,8.37-1.96,12.75-2.38,2.29-.22,4.61-.34,6.97-.34,40.08,0,72.58,32.5,72.58,72.58Z"/>
      <path class="cls-5" d="M307.13,189.16c0,19.73-7.88,37.65-20.68,50.72-12.46-13.25,24.46-46.94-20.65-52.49-30.22-3.71-.51-32.51-29.23-48.64-10.14-5.69-11.49-13.76-8.99-21.84,2.29-.22,4.61-.34,6.97-.34,40.08,0,72.58,32.5,72.58,72.58Z"/>
      <path class="cls-5" d="M261.61,256.52c-8.35,3.36-17.5,5.22-27.06,5.22-39.34,0-71.38-31.31-72.54-70.37,8.41-1.01,18.2,1.33,25.84,13.25,16.8,26.2,38.56-8.74,46.96,14.78,6.1,17.07,11,29.32,26.81,37.12Z"/>
      <path class="cls-5" d="M213.72,182.44c-7.22,9.62-32.18-8.46-51.07-3.23,3.95-28.78,24.78-52.19,52.19-59.91,3.92,4.99,5.99,12.48-3.13,22.14-16.81,17.81,10.08,30.24,2.02,40.99Z"/>
      <path class="cls-1" d="M275.55,128.83c7.78,11.54,12.32,25.41,12.32,40.34,0,19.73-7.93,37.65-20.82,50.72-7.02,7.14-15.52,12.85-25,16.64-8.41,3.37-17.62,5.22-27.24,5.22-15.02,0-28.97-4.51-40.58-12.23,13.11,19.42,35.4,32.22,60.7,32.22,9.62,0,18.83-1.86,27.24-5.22,9.49-3.78,17.99-9.5,25-16.64,12.88-13.08,20.82-30.99,20.82-50.72,0-25.15-12.88-47.31-32.45-60.34Z"/>
      <path class="cls-5" d="M233.4,57.43s3.52-6.49,9.09-4.39c5.57,2.09,4.22,14.59-9.09,24.04"/>
      <path class="cls-5" d="M233.4,57.36s-3.46-6.51-8.94-4.41c-5.48,2.1-4.15,14.64,8.94,24.12"/>
    </g>
  </g>
</svg>